<?xml version="1.0" encoding="UTF-8" standalone="no"?>
<!-- Created with Inkscape (http://www.inkscape.org/) -->

<svg
   xmlns:dc="http://purl.org/dc/elements/1.1/"
   xmlns:cc="http://creativecommons.org/ns#"
   xmlns:rdf="http://www.w3.org/1999/02/22-rdf-syntax-ns#"
   xmlns:svg="http://www.w3.org/2000/svg"
   xmlns="http://www.w3.org/2000/svg"
   xmlns:sodipodi="http://sodipodi.sourceforge.net/DTD/sodipodi-0.dtd"
   xmlns:inkscape="http://www.inkscape.org/namespaces/inkscape"
   width="764.71234"
   height="623.86951"
   viewBox="0 0 202.32995 165.06505"
   version="1.1"
   id="svg8"
   inkscape:version="0.92.3 (2405546, 2018-03-11)"
   sodipodi:docname="zodiac-background.svg">
  <defs
     id="defs2" />
  <sodipodi:namedview
     id="base"
     pagecolor="#ffffff"
     bordercolor="#666666"
     borderopacity="1.0"
     inkscape:pageopacity="0.0"
     inkscape:pageshadow="2"
     inkscape:zoom="0.98994949"
     inkscape:cx="453.14467"
     inkscape:cy="287.27581"
     inkscape:document-units="mm"
     inkscape:current-layer="layer1"
     showgrid="false"
     inkscape:window-width="1920"
     inkscape:window-height="1022"
     inkscape:window-x="1920"
     inkscape:window-y="28"
     inkscape:window-maximized="1"
     fit-margin-top="0"
     fit-margin-left="0"
     fit-margin-right="0"
     fit-margin-bottom="0"
     units="px" />
  <metadata
     id="metadata5">
    <rdf:RDF>
      <cc:Work
         rdf:about="">
        <dc:format>image/svg+xml</dc:format>
        <dc:type
           rdf:resource="http://purl.org/dc/dcmitype/StillImage" />
        <dc:title></dc:title>
      </cc:Work>
    </rdf:RDF>
  </metadata>
  <g
     inkscape:label="Layer 1"
     inkscape:groupmode="layer"
     id="layer1"
     transform="translate(-10.696689,24.672547)">
    <g
       id="g87"
       transform="matrix(0.26458333,0,0,0.26458333,12.222049,20.735488)"
       style="fill:#9370db">
      <g
         id="g31"
         style="fill:#9370db">
        <path
           id="path29"
           d="M 31.882,17.006 C 32.38,14.027 31.284,11.226 28.951,9.511 27.726,8.611 26.32,8.147 25.062,8.157 V 6.654 c 0,-3.987 -3.293,-4.659 -5.371,-4.659 -1.394,0 -2.688,0.524 -3.65,1.479 C 16.039,3.476 16.038,3.478 16.036,3.48 15.015,2.506 13.662,1.995 12.347,1.995 10.957,1.995 9.661,2.519 8.699,3.474 8.691,3.48 8.685,3.492 8.678,3.499 7.693,2.677 6.464,2.231 5.26,2.231 3.868,2.231 2.572,2.755 1.61,3.71 0.876,4.439 0,5.761 0,7.909 0,8.888 0.792,9.68 1.772,9.68 c 0.979,0 1.772,-0.792 1.772,-1.771 0,-1.979 1.312,-2.133 1.715,-2.133 0.843,0 1.827,0.558 1.827,2.133 v 14.99 c 0,0.979 0.793,1.771 1.772,1.771 0.979,0 1.772,-0.793 1.772,-1.771 V 7.671 c 0,-1.979 1.544,-2.129 1.968,-2.129 0.424,0 1.877,0.113 1.877,2.41 0,2.871 -0.045,14.946 -0.045,14.946 0,0.979 0.792,1.771 1.772,1.771 0.979,0 1.772,-0.793 1.772,-1.771 V 7.671 c 0,-1.979 1.312,-2.132 1.715,-2.132 0.843,0 1.828,0.557 1.828,2.132 0,0 0.051,16.173 0.049,17.226 -1.44,0.844 -2.838,1.396 -3.893,1.596 -0.962,0.182 -1.595,1.107 -1.414,2.07 0.161,0.85 0.904,1.442 1.74,1.442 0.107,0 0.221,-0.012 0.33,-0.03 1.422,-0.271 3.402,-1.045 5.418,-2.277 1.896,0.971 4.486,1.439 5.799,1.627 0.956,0.129 1.867,-0.537 2.004,-1.504 0.139,-0.971 -0.533,-1.867 -1.504,-2.006 -1.008,-0.146 -2.057,-0.375 -2.951,-0.627 2.318,-2.123 4.235,-4.881 4.787,-8.182 z m -6.762,5.182 c 0.002,-0.781 0.005,-1.646 0.009,-2.549 0.01,-2.867 0.021,-6.07 0.021,-7.956 0.397,0.02 1.146,0.219 1.877,0.819 0.662,0.543 1.718,1.775 1.359,3.918 -0.366,2.203 -1.652,4.167 -3.266,5.768 z"
           inkscape:connector-curvature="0"
           style="fill:#9370db" />
      </g>
      <g
         id="g33"
         style="fill:#9370db" />
      <g
         id="g35"
         style="fill:#9370db" />
      <g
         id="g37"
         style="fill:#9370db" />
      <g
         id="g39"
         style="fill:#9370db" />
      <g
         id="g41"
         style="fill:#9370db" />
      <g
         id="g43"
         style="fill:#9370db" />
      <g
         id="g45"
         style="fill:#9370db" />
      <g
         id="g47"
         style="fill:#9370db" />
      <g
         id="g49"
         style="fill:#9370db" />
      <g
         id="g51"
         style="fill:#9370db" />
      <g
         id="g53"
         style="fill:#9370db" />
      <g
         id="g55"
         style="fill:#9370db" />
      <g
         id="g57"
         style="fill:#9370db" />
      <g
         id="g59"
         style="fill:#9370db" />
      <g
         id="g61"
         style="fill:#9370db" />
    </g>
    <g
       id="g147"
       transform="matrix(0.26458333,0,0,0.26458333,18.079845,60.557296)"
       style="fill:#32cd32">
      <g
         id="g91"
         style="fill:#32cd32">
        <path
           id="path89"
           d="M 21.653,23.901 V 8.266 C 23.878,7.77 25.621,6.91 26.841,5.675 28.531,3.964 28.598,2.199 28.594,1.863 28.581,0.856 27.78,0.086 26.773,0.05 25.756,0.022 24.911,0.828 24.832,1.831 24.747,2.93 22.914,5.002 16.598,5.002 10.15,5.002 8.038,2.814 7.82,1.648 7.69,0.645 6.796,-0.106 5.774,0.013 4.739,0.11 3.979,1.027 4.076,2.063 4.097,2.272 4.558,6.106 10.085,7.877 v 16.055 c -6.151,1.666 -6.646,5.791 -6.667,6.01 -0.095,1.004 0.625,1.863 1.625,1.998 0.997,0.135 1.936,-0.58 2.114,-1.572 0.208,-1.165 2.313,-3.365 8.78,-3.365 6.316,0 8.149,2.073 8.234,3.097 -0.013,1.038 0.82,1.892 1.859,1.902 0.007,0 0.016,0 0.021,0 1.028,0 1.87,-0.829 1.882,-1.859 0.003,-0.336 -0.062,-2.102 -1.753,-3.812 -1.094,-1.11 -2.618,-1.916 -4.527,-2.43 z m -7.806,-0.59 V 8.619 c 0.849,0.087 1.744,0.147 2.747,0.147 0.446,0 0.87,-0.02 1.294,-0.037 v 14.577 c -0.626,-0.043 -1.272,-0.07 -1.952,-0.07 -0.739,-0.001 -1.435,0.026 -2.089,0.075 z"
           inkscape:connector-curvature="0"
           style="fill:#32cd32" />
      </g>
      <g
         id="g93"
         style="fill:#32cd32" />
      <g
         id="g95"
         style="fill:#32cd32" />
      <g
         id="g97"
         style="fill:#32cd32" />
      <g
         id="g99"
         style="fill:#32cd32" />
      <g
         id="g101"
         style="fill:#32cd32" />
      <g
         id="g103"
         style="fill:#32cd32" />
      <g
         id="g105"
         style="fill:#32cd32" />
      <g
         id="g107"
         style="fill:#32cd32" />
      <g
         id="g109"
         style="fill:#32cd32" />
      <g
         id="g111"
         style="fill:#32cd32" />
      <g
         id="g113"
         style="fill:#32cd32" />
      <g
         id="g115"
         style="fill:#32cd32" />
      <g
         id="g117"
         style="fill:#32cd32" />
      <g
         id="g119"
         style="fill:#32cd32" />
      <g
         id="g121"
         style="fill:#32cd32" />
    </g>
    <g
       id="g213"
       transform="matrix(0.26458333,0,0,0.26458333,167.37802,15.287258)"
       style="fill:#7fffd4">
      <g
         id="g155"
         style="fill:#7fffd4">
        <g
           id="g153"
           style="fill:#7fffd4">
          <path
             id="path149"
             d="m 1.631,13.91 c 1.703,0 2.789,-1.314 3.662,-2.376 0.873,-1.057 1.455,-1.698 2.181,-1.698 0.382,0 0.688,0.412 1.356,1.574 0.775,1.35 1.944,3.386 4.486,3.386 2.623,0 3.706,-2.061 4.42,-3.422 0.312,-0.596 0.703,-1.336 0.947,-1.336 0.422,0 1.055,1.006 1.516,1.737 0.867,1.373 1.943,3.086 3.988,3.086 1.994,0 3.479,-1.663 4.797,-3.132 0.473,-0.528 1.177,-1.312 1.514,-1.493 C 31.339,10.172 32,9.468 32,8.611 32,7.712 31.271,6.979 30.37,6.979 c -1.511,0 -2.63,1.25 -3.813,2.574 -0.641,0.716 -1.832,2.045 -2.373,2.045 C 23.901,11.531 23.266,10.52 22.959,10.036 22.093,8.66 20.906,6.774 18.684,6.774 c -2.215,0 -3.188,1.854 -3.833,3.079 -0.725,1.38 -0.996,1.678 -1.533,1.678 -0.561,0 -0.905,-0.438 -1.658,-1.747 C 10.879,8.429 9.811,6.571 7.474,6.571 5.158,6.571 3.781,8.24 2.777,9.46 2.435,9.872 1.867,10.564 1.614,10.648 0.722,10.658 0,11.385 0,12.279 0,13.18 0.73,13.91 1.631,13.91 Z"
             inkscape:connector-curvature="0"
             style="fill:#7fffd4" />
          <path
             id="path151"
             d="m 30.37,17.55 c -1.511,0 -2.63,1.25 -3.813,2.572 -0.641,0.717 -1.832,2.046 -2.373,2.046 -0.283,-0.067 -0.918,-1.077 -1.225,-1.562 -0.866,-1.377 -2.053,-3.262 -4.275,-3.262 -2.215,0 -3.188,1.854 -3.833,3.08 -0.725,1.379 -0.996,1.676 -1.533,1.676 -0.561,0 -0.905,-0.438 -1.658,-1.746 -0.779,-1.355 -1.848,-3.215 -4.185,-3.215 -2.315,0 -3.692,1.67 -4.696,2.89 -0.342,0.414 -0.91,1.104 -1.163,1.188 C 0.722,21.228 0,21.953 0,22.847 c 0,0.899 0.73,1.631 1.631,1.631 1.703,0 2.789,-1.314 3.662,-2.375 0.873,-1.058 1.455,-1.699 2.181,-1.699 0.382,0 0.688,0.413 1.356,1.574 0.775,1.351 1.944,3.386 4.486,3.386 2.623,0 3.706,-2.06 4.42,-3.42 0.312,-0.597 0.703,-1.337 0.947,-1.337 0.422,0 1.055,1.006 1.516,1.736 0.867,1.375 1.943,3.086 3.988,3.086 1.994,0 3.479,-1.662 4.797,-3.131 0.473,-0.527 1.177,-1.312 1.514,-1.494 C 31.339,20.74 32,20.036 32,19.179 32,18.278 31.271,17.55 30.37,17.55 Z"
             inkscape:connector-curvature="0"
             style="fill:#7fffd4" />
        </g>
      </g>
      <g
         id="g157"
         style="fill:#7fffd4" />
      <g
         id="g159"
         style="fill:#7fffd4" />
      <g
         id="g161"
         style="fill:#7fffd4" />
      <g
         id="g163"
         style="fill:#7fffd4" />
      <g
         id="g165"
         style="fill:#7fffd4" />
      <g
         id="g167"
         style="fill:#7fffd4" />
      <g
         id="g169"
         style="fill:#7fffd4" />
      <g
         id="g171"
         style="fill:#7fffd4" />
      <g
         id="g173"
         style="fill:#7fffd4" />
      <g
         id="g175"
         style="fill:#7fffd4" />
      <g
         id="g177"
         style="fill:#7fffd4" />
      <g
         id="g179"
         style="fill:#7fffd4" />
      <g
         id="g181"
         style="fill:#7fffd4" />
      <g
         id="g183"
         style="fill:#7fffd4" />
      <g
         id="g185"
         style="fill:#7fffd4" />
    </g>
    <g
       id="g273"
       transform="matrix(0.26458333,0,0,0.26458333,195.34825,-9.8483201)"
       style="fill:#00fa9a">
      <g
         id="g217"
         style="fill:#00fa9a">
        <path
           id="path215"
           d="M 30.162,6.688 C 27.758,3.508 23.474,2.16 19.737,3.409 18.14,3.944 16.854,4.92 15.91,6.2 14.985,5.034 13.763,4.14 12.261,3.637 8.526,2.386 4.242,3.733 1.838,6.914 c -2.332,3.089 -2.022,6.004 -1.354,7.906 0.736,2.089 2.399,4.116 3.634,4.426 0.979,0.24 1.979,-0.348 2.227,-1.332 C 6.56,17.06 6.137,16.191 5.375,15.819 5.064,15.549 3.971,14.359 3.724,12.715 3.537,11.474 3.88,10.302 4.768,9.127 6.212,7.218 8.872,6.375 11.094,7.116 c 1.98,0.665 3.07,2.453 3.07,5.033 v 14.841 0.229 c 0,1.016 0.821,1.835 1.836,1.835 1.016,0 1.836,-0.819 1.836,-1.835 V 26.99 12.15 11.924 c 0,-2.582 1.09,-4.369 3.069,-5.034 2.226,-0.742 4.883,0.101 6.326,2.01 0.889,1.176 1.229,2.35 1.043,3.587 -0.248,1.646 -1.34,2.836 -1.649,3.104 -0.763,0.373 -1.187,1.24 -0.972,2.096 0.248,0.985 1.244,1.581 2.229,1.332 1.235,-0.311 2.896,-2.338 3.634,-4.426 0.668,-1.904 0.978,-4.82 -1.354,-7.905 z"
           inkscape:connector-curvature="0"
           style="fill:#00fa9a" />
      </g>
      <g
         id="g219"
         style="fill:#00fa9a" />
      <g
         id="g221"
         style="fill:#00fa9a" />
      <g
         id="g223"
         style="fill:#00fa9a" />
      <g
         id="g225"
         style="fill:#00fa9a" />
      <g
         id="g227"
         style="fill:#00fa9a" />
      <g
         id="g229"
         style="fill:#00fa9a" />
      <g
         id="g231"
         style="fill:#00fa9a" />
      <g
         id="g233"
         style="fill:#00fa9a" />
      <g
         id="g235"
         style="fill:#00fa9a" />
      <g
         id="g237"
         style="fill:#00fa9a" />
      <g
         id="g239"
         style="fill:#00fa9a" />
      <g
         id="g241"
         style="fill:#00fa9a" />
      <g
         id="g243"
         style="fill:#00fa9a" />
      <g
         id="g245"
         style="fill:#00fa9a" />
      <g
         id="g247"
         style="fill:#00fa9a" />
    </g>
    <g
       id="g339"
       transform="matrix(0.26458333,0,0,0.26458333,199.317,38.721783)"
       style="fill:#4169e1">
      <g
         id="g281"
         style="fill:#4169e1">
        <g
           id="g279"
           style="fill:#4169e1">
          <path
             id="path275"
             d="m 27.955,19.752 c -0.087,0.078 -7.049,6.217 -14.847,6.047 0.944,-1.231 1.53,-2.756 1.53,-4.428 0,-4.035 -3.283,-7.317 -7.319,-7.317 C 3.283,14.053 0,17.336 0,21.372 c 0,3.6 2.614,6.582 6.04,7.189 2.52,1.15 5.032,1.632 7.44,1.632 9.279,0 16.985,-6.836 17.392,-7.204 0.894,-0.807 0.962,-2.181 0.16,-3.072 C 30.225,19.02 28.85,18.95 27.955,19.752 Z M 7.319,24.334 c -1.634,0 -2.962,-1.326 -2.962,-2.963 0,-1.633 1.328,-2.961 2.962,-2.961 1.634,0 2.962,1.328 2.962,2.961 0,1.636 -1.328,2.963 -2.962,2.963 z"
             inkscape:connector-curvature="0"
             style="fill:#4169e1" />
          <path
             id="path277"
             d="m 4.045,12.247 c 0.087,-0.077 7.049,-6.215 14.848,-6.045 -0.943,1.231 -1.531,2.755 -1.531,4.426 0,4.036 3.283,7.318 7.32,7.318 C 28.717,17.946 32,14.664 32,10.628 32,7.03 29.385,4.048 25.96,3.44 23.439,2.287 20.928,1.807 18.52,1.807 9.241,1.807 1.535,8.643 1.128,9.011 c -0.895,0.807 -0.962,2.181 -0.16,3.071 0.808,0.899 2.183,0.969 3.077,0.165 z M 24.682,7.666 c 1.633,0 2.961,1.327 2.961,2.962 0,1.635 -1.328,2.962 -2.961,2.962 -1.635,0 -2.963,-1.327 -2.963,-2.962 0,-1.634 1.328,-2.962 2.963,-2.962 z"
             inkscape:connector-curvature="0"
             style="fill:#4169e1" />
        </g>
      </g>
      <g
         id="g283"
         style="fill:#4169e1" />
      <g
         id="g285"
         style="fill:#4169e1" />
      <g
         id="g287"
         style="fill:#4169e1" />
      <g
         id="g289"
         style="fill:#4169e1" />
      <g
         id="g291"
         style="fill:#4169e1" />
      <g
         id="g293"
         style="fill:#4169e1" />
      <g
         id="g295"
         style="fill:#4169e1" />
      <g
         id="g297"
         style="fill:#4169e1" />
      <g
         id="g299"
         style="fill:#4169e1" />
      <g
         id="g301"
         style="fill:#4169e1" />
      <g
         id="g303"
         style="fill:#4169e1" />
      <g
         id="g305"
         style="fill:#4169e1" />
      <g
         id="g307"
         style="fill:#4169e1" />
      <g
         id="g309"
         style="fill:#4169e1" />
      <g
         id="g311"
         style="fill:#4169e1" />
    </g>
    <g
       id="g399"
       transform="matrix(0.26458333,0,0,0.26458333,201.77441,100.33217)"
       style="fill:#32cd32">
      <g
         id="g343"
         style="fill:#32cd32">
        <path
           id="path341"
           d="m 31.455,21.75 -4.507,-3.229 c -0.399,-0.286 -0.921,-0.326 -1.354,-0.104 -0.435,0.223 -0.707,0.67 -0.707,1.159 v 1.984 c -0.863,-0.207 -2.01,-0.649 -2.01,-1.333 V 8.198 c 0,-2.904 -3.006,-4.252 -4.902,-4.252 -1.271,0 -2.454,0.479 -3.333,1.351 C 14.641,5.298 14.639,5.3 14.637,5.301 13.706,4.412 12.47,3.946 11.27,3.946 10.001,3.946 8.818,4.425 7.94,5.297 7.933,5.302 7.927,5.312 7.92,5.318 7.022,4.568 5.9,4.162 4.8,4.162 3.53,4.162 2.347,4.641 1.469,5.513 0.799,6.177 0,7.383 0,9.343 c 0,0.895 0.724,1.617 1.618,1.617 0.894,0 1.617,-0.724 1.617,-1.617 0,-1.806 1.198,-1.945 1.565,-1.945 0.77,0 1.669,0.509 1.669,1.945 v 13.685 c 0,0.895 0.723,1.617 1.617,1.617 0.894,0 1.617,-0.725 1.617,-1.617 v -13.9 c 0,-1.806 1.199,-1.946 1.566,-1.946 2.192,0 1.903,2.105 1.903,2.734 0,0.629 0,13.112 0,13.112 0,0.895 0.724,1.617 1.617,1.617 0.895,0 1.618,-0.725 1.618,-1.617 v -13.9 c 0,-1.806 1.196,-1.946 1.565,-1.946 0.77,0 1.668,0.51 1.668,1.946 v 11.104 c 0,3.082 3.139,4.321 5.242,4.622 v 1.893 c 0,0.512 0.301,0.975 0.766,1.188 0.174,0.078 0.354,0.117 0.537,0.117 0.311,0 0.615,-0.11 0.857,-0.321 l 4.507,-3.937 c 0.302,-0.262 0.466,-0.646 0.445,-1.045 -0.015,-0.403 -0.215,-0.768 -0.539,-0.999 z"
           inkscape:connector-curvature="0"
           style="fill:#32cd32" />
      </g>
      <g
         id="g345"
         style="fill:#32cd32" />
      <g
         id="g347"
         style="fill:#32cd32" />
      <g
         id="g349"
         style="fill:#32cd32" />
      <g
         id="g351"
         style="fill:#32cd32" />
      <g
         id="g353"
         style="fill:#32cd32" />
      <g
         id="g355"
         style="fill:#32cd32" />
      <g
         id="g357"
         style="fill:#32cd32" />
      <g
         id="g359"
         style="fill:#32cd32" />
      <g
         id="g361"
         style="fill:#32cd32" />
      <g
         id="g363"
         style="fill:#32cd32" />
      <g
         id="g365"
         style="fill:#32cd32" />
      <g
         id="g367"
         style="fill:#32cd32" />
      <g
         id="g369"
         style="fill:#32cd32" />
      <g
         id="g371"
         style="fill:#32cd32" />
      <g
         id="g373"
         style="fill:#32cd32" />
    </g>
    <g
       id="g459"
       transform="matrix(0.26458333,0,0,0.26458333,41.360066,44.58238)"
       style="fill:#40e0d0">
      <g
         id="g403"
         style="fill:#40e0d0">
        <path
           id="path401"
           d="m 30.096,24.16 c -0.237,-1.158 -1.373,-1.91 -2.526,-1.671 -1.16,0.236 -1.906,1.368 -1.668,2.527 0.053,0.271 -2.261,3.369 -3.908,2.63 C 20.347,26.907 20.223,23.895 21.289,22.52 23.623,19.518 28.893,11.908 27.412,6.127 26.826,3.84 25.264,2.091 22.849,1.045 19.192,-0.437 16.1,-0.344 13.656,1.328 c -3.428,2.344 -4.309,7.04 -4.53,9.608 -0.014,0 -0.025,-0.005 -0.039,-0.005 -4.153,0 -7.532,3.379 -7.532,7.532 0,4.152 3.379,7.531 7.532,7.531 4.152,0 7.53,-3.379 7.53,-7.531 0,-2.571 -1.298,-4.842 -3.271,-6.203 0.037,-1.81 0.56,-5.921 2.731,-7.401 1.188,-0.802 2.917,-0.754 5.113,0.138 1.521,0.657 1.91,1.567 2.07,2.194 0.682,2.655 -1.421,7.641 -5.354,12.701 -2.955,3.801 -2.44,7.938 1.371,11.065 2.258,1.416 5.691,0.635 7.03,-0.174 2.113,-1.27 4.372,-3.77 3.789,-6.623 z M 9.086,21.709 c -1.791,0 -3.247,-1.457 -3.247,-3.246 0,-1.791 1.456,-3.249 3.247,-3.249 1.791,0 3.247,1.458 3.247,3.249 -10e-4,1.789 -1.458,3.246 -3.247,3.246 z"
           inkscape:connector-curvature="0"
           style="fill:#40e0d0" />
      </g>
      <g
         id="g405"
         style="fill:#40e0d0" />
      <g
         id="g407"
         style="fill:#40e0d0" />
      <g
         id="g409"
         style="fill:#40e0d0" />
      <g
         id="g411"
         style="fill:#40e0d0" />
      <g
         id="g413"
         style="fill:#40e0d0" />
      <g
         id="g415"
         style="fill:#40e0d0" />
      <g
         id="g417"
         style="fill:#40e0d0" />
      <g
         id="g419"
         style="fill:#40e0d0" />
      <g
         id="g421"
         style="fill:#40e0d0" />
      <g
         id="g423"
         style="fill:#40e0d0" />
      <g
         id="g425"
         style="fill:#40e0d0" />
      <g
         id="g427"
         style="fill:#40e0d0" />
      <g
         id="g429"
         style="fill:#40e0d0" />
      <g
         id="g431"
         style="fill:#40e0d0" />
      <g
         id="g433"
         style="fill:#40e0d0" />
    </g>
    <g
       id="g519"
       transform="matrix(0.26458333,0,0,0.26458333,12.033107,102.75632)"
       style="fill:#ff0000">
      <g
         id="g463"
         style="fill:#ff0000">
        <path
           id="path461"
           d="m 29.988,0.479 h -0.005 c -0.276,0 -6.46,0.118 -10.985,7.858 -0.91,-0.225 -1.854,-0.359 -2.833,-0.359 -1.086,0 -2.135,0.16 -3.134,0.437 C 8.498,0.601 2.278,0.479 2.001,0.479 c -0.002,0 -0.004,0 -0.006,0 C 0.897,0.479 0.021,1.358 0,2.454 -0.018,3.552 0.862,4.463 1.962,4.5 c 0.181,0.006 4.14,0.216 7.417,5.645 -3.011,2.135 -4.986,5.641 -4.986,9.605 0,6.489 5.28,11.771 11.771,11.771 6.492,0 11.774,-5.28 11.774,-11.771 0,-4.069 -2.077,-7.663 -5.225,-9.777 C 25.944,4.755 29.781,4.51 30.02,4.5 31.121,4.484 32.003,3.587 32,2.483 31.998,1.376 31.099,0.479 29.988,0.479 Z m -13.824,27.02 c -4.272,0 -7.749,-3.476 -7.749,-7.748 0,-4.272 3.477,-7.751 7.749,-7.751 4.275,0 7.751,3.478 7.751,7.75 0.001,4.273 -3.477,7.749 -7.751,7.749 z"
           inkscape:connector-curvature="0"
           style="fill:#ff0000" />
      </g>
      <g
         id="g465"
         style="fill:#ff0000" />
      <g
         id="g467"
         style="fill:#ff0000" />
      <g
         id="g469"
         style="fill:#ff0000" />
      <g
         id="g471"
         style="fill:#ff0000" />
      <g
         id="g473"
         style="fill:#ff0000" />
      <g
         id="g475"
         style="fill:#ff0000" />
      <g
         id="g477"
         style="fill:#ff0000" />
      <g
         id="g479"
         style="fill:#ff0000" />
      <g
         id="g481"
         style="fill:#ff0000" />
      <g
         id="g483"
         style="fill:#ff0000" />
      <g
         id="g485"
         style="fill:#ff0000" />
      <g
         id="g487"
         style="fill:#ff0000" />
      <g
         id="g489"
         style="fill:#ff0000" />
      <g
         id="g491"
         style="fill:#ff0000" />
      <g
         id="g493"
         style="fill:#ff0000" />
    </g>
    <g
       id="g579"
       transform="matrix(0.26458333,0,0,0.26458333,34.522523,-10.069698)"
       style="fill:#ff8c00">
      <g
         id="g523"
         style="fill:#ff8c00">
        <path
           id="path521"
           d="m 29.824,14.867 h -7.59 C 22.935,7.89 26.839,5.261 27.068,5.113 28.085,4.487 28.404,3.157 27.787,2.134 27.162,1.106 25.826,0.783 24.798,1.402 24.529,1.563 18.652,5.252 17.861,14.867 H 12.96 C 12.167,5.252 6.291,1.564 6.023,1.402 5.002,0.786 3.683,1.111 3.057,2.122 2.427,3.134 2.74,4.47 3.747,5.111 3.93,5.23 7.879,7.847 8.582,14.867 H 2.176 C 0.973,14.867 0,15.841 0,17.044 0,18.245 0.973,19.22 2.176,19.22 h 6.393 c -0.73,6.222 -4.487,7.361 -4.634,7.4 -1.168,0.281 -1.889,1.456 -1.608,2.624 0.24,0.997 1.131,1.669 2.114,1.669 0.168,0 0.338,-0.021 0.51,-0.061 0.308,-0.076 7.113,-1.829 8.003,-11.636 h 4.914 c 0.889,9.807 7.694,11.56 8.004,11.636 0.17,0.039 0.34,0.061 0.505,0.061 0.967,0 1.836,-0.656 2.089,-1.637 0.298,-1.148 -0.399,-2.329 -1.545,-2.646 -0.176,-0.049 -3.937,-1.188 -4.667,-7.41 h 7.571 c 1.202,0 2.176,-0.975 2.176,-2.176 0,-1.203 -0.974,-2.177 -2.177,-2.177 z"
           inkscape:connector-curvature="0"
           style="fill:#ff8c00" />
      </g>
      <g
         id="g525"
         style="fill:#ff8c00" />
      <g
         id="g527"
         style="fill:#ff8c00" />
      <g
         id="g529"
         style="fill:#ff8c00" />
      <g
         id="g531"
         style="fill:#ff8c00" />
      <g
         id="g533"
         style="fill:#ff8c00" />
      <g
         id="g535"
         style="fill:#ff8c00" />
      <g
         id="g537"
         style="fill:#ff8c00" />
      <g
         id="g539"
         style="fill:#ff8c00" />
      <g
         id="g541"
         style="fill:#ff8c00" />
      <g
         id="g543"
         style="fill:#ff8c00" />
      <g
         id="g545"
         style="fill:#ff8c00" />
      <g
         id="g547"
         style="fill:#ff8c00" />
      <g
         id="g549"
         style="fill:#ff8c00" />
      <g
         id="g551"
         style="fill:#ff8c00" />
      <g
         id="g553"
         style="fill:#ff8c00" />
    </g>
    <g
       id="g645"
       transform="matrix(0.26458333,0,0,0.26458333,42.838132,77.242928)"
       style="fill:#ffa500">
      <g
         id="g587"
         style="fill:#ffa500">
        <g
           id="g585"
           style="fill:#ffa500">
          <path
             id="path581"
             d="m 1.78,19.263 h 6.97 c 0.983,0 1.78,-0.796 1.78,-1.778 l -0.002,-0.352 c -0.015,-1.361 -0.046,-4.196 1.523,-5.784 0.852,-0.861 2.101,-1.28 3.818,-1.28 2.497,0 4.066,0.885 4.941,2.782 0.771,1.678 0.771,3.691 0.77,4.633 0,0.981 0.797,1.777 1.779,1.777 h 6.856 c 0.983,0 1.78,-0.796 1.78,-1.777 0,-0.982 -0.797,-1.779 -1.78,-1.779 H 25.083 C 24.991,14.467 24.735,12.88 24.04,11.363 23.02,9.147 20.774,6.508 15.867,6.508 c -2.68,0 -4.816,0.786 -6.35,2.338 -2.021,2.042 -2.454,4.886 -2.537,6.857 h -5.2 c -0.983,0 -1.78,0.796 -1.78,1.779 0,0.985 0.797,1.781 1.78,1.781 z"
             inkscape:connector-curvature="0"
             style="fill:#ffa500" />
          <path
             id="path583"
             d="M 30.221,21.934 H 1.78 C 0.797,21.934 0,22.73 0,23.712 c 0,0.983 0.797,1.78 1.78,1.78 h 28.441 c 0.982,0 1.779,-0.797 1.779,-1.78 0,-0.983 -0.797,-1.778 -1.779,-1.778 z"
             inkscape:connector-curvature="0"
             style="fill:#ffa500" />
        </g>
      </g>
      <g
         id="g589"
         style="fill:#ffa500" />
      <g
         id="g591"
         style="fill:#ffa500" />
      <g
         id="g593"
         style="fill:#ffa500" />
      <g
         id="g595"
         style="fill:#ffa500" />
      <g
         id="g597"
         style="fill:#ffa500" />
      <g
         id="g599"
         style="fill:#ffa500" />
      <g
         id="g601"
         style="fill:#ffa500" />
      <g
         id="g603"
         style="fill:#ffa500" />
      <g
         id="g605"
         style="fill:#ffa500" />
      <g
         id="g607"
         style="fill:#ffa500" />
      <g
         id="g609"
         style="fill:#ffa500" />
      <g
         id="g611"
         style="fill:#ffa500" />
      <g
         id="g613"
         style="fill:#ffa500" />
      <g
         id="g615"
         style="fill:#ffa500" />
      <g
         id="g617"
         style="fill:#ffa500" />
    </g>
    <g
       id="g705"
       transform="matrix(0.26458333,0,0,0.26458333,146.40003,112.42714)"
       style="fill:#ff0000">
      <g
         id="g649"
         style="fill:#ff0000">
        <path
           id="path647"
           d="M 31.983,2.058 C 31.973,1.815 31.932,1.569 31.837,1.34 31.733,1.089 31.584,0.866 31.398,0.676 31.394,0.67 31.392,0.664 31.388,0.659 v 0 C 31.195,0.465 30.963,0.312 30.708,0.206 30.453,0.1 30.184,0.043 29.91,0.043 c -0.001,0 -0.001,0 -0.002,0 H 18.747 c -1.155,0 -2.093,0.937 -2.093,2.093 0,1.157 0.938,2.093 2.093,2.093 h 6.099 l -9.998,9.967 -3.593,-3.729 C 10.453,9.637 9.127,9.611 8.296,10.414 7.463,11.215 7.438,12.539 8.24,13.373 L 11.882,17.15 0.615,28.383 c -0.818,0.814 -0.82,2.141 -0.004,2.959 0.408,0.411 0.944,0.615 1.481,0.615 0.534,0 1.069,-0.204 1.478,-0.611 l 11.215,-11.181 4.11,4.265 c 0.41,0.426 0.957,0.641 1.508,0.641 0.521,0 1.047,-0.192 1.451,-0.586 0.832,-0.801 0.856,-2.127 0.056,-2.959 L 17.752,17.211 27.814,7.181 v 5.944 c 0,1.157 0.938,2.094 2.096,2.094 1.154,0 2.092,-0.937 2.092,-2.094 V 2.136 C 32,2.107 31.985,2.085 31.983,2.058 Z"
           inkscape:connector-curvature="0"
           style="fill:#ff0000" />
      </g>
      <g
         id="g651"
         style="fill:#ff0000" />
      <g
         id="g653"
         style="fill:#ff0000" />
      <g
         id="g655"
         style="fill:#ff0000" />
      <g
         id="g657"
         style="fill:#ff0000" />
      <g
         id="g659"
         style="fill:#ff0000" />
      <g
         id="g661"
         style="fill:#ff0000" />
      <g
         id="g663"
         style="fill:#ff0000" />
      <g
         id="g665"
         style="fill:#ff0000" />
      <g
         id="g667"
         style="fill:#ff0000" />
      <g
         id="g669"
         style="fill:#ff0000" />
      <g
         id="g671"
         style="fill:#ff0000" />
      <g
         id="g673"
         style="fill:#ff0000" />
      <g
         id="g675"
         style="fill:#ff0000" />
      <g
         id="g677"
         style="fill:#ff0000" />
      <g
         id="g679"
         style="fill:#ff0000" />
    </g>
    <g
       id="g765"
       transform="matrix(0.26458333,0,0,0.26458333,170.78008,66.125319)"
       style="fill:#ffa500">
      <g
         id="g709"
         style="fill:#ffa500">
        <path
           id="path707"
           d="m 25.262,10.757 c -2.213,0 -4.164,1.088 -5.394,2.741 -0.616,-1.326 -1.22,-3.132 -1.22,-5.142 0,-2.469 -2.002,-4.129 -4.982,-4.129 -1.527,0 -3.107,0.462 -4.193,1.345 C 8.143,4.556 6.215,3.986 4.648,3.986 3.402,3.986 2.317,4.323 1.512,4.96 0.822,5.506 0,6.538 0,8.358 0,9.177 0.664,9.839 1.482,9.839 2.3,9.839 2.964,9.177 2.964,8.358 2.964,7.636 3.167,7.128 4.159,6.983 5.921,6.719 7.936,7.866 8.088,8.358 v 12.104 c 0,0.818 0.664,1.481 1.482,1.481 0.818,0 1.481,-0.663 1.481,-1.481 V 8.358 c 0,-0.522 1.206,-1.165 2.614,-1.165 0.649,0 1.234,0.142 1.604,0.385 0.294,0.195 0.413,0.423 0.413,0.78 0,4.285 2.095,7.705 2.873,8.828 -0.006,0.104 -0.031,0.204 -0.031,0.31 0,1.057 0.266,2.04 0.697,2.93 -0.908,1.381 -3.453,4.526 -7.861,4.621 -0.818,0.019 -1.468,0.693 -1.451,1.515 0.018,0.808 0.678,1.45 1.482,1.45 0.01,0 0.021,0 0.031,0 5.055,-0.107 8.215,-3.201 9.738,-5.205 1.141,0.882 2.551,1.43 4.1,1.43 3.717,0 6.738,-3.021 6.738,-6.736 0,-3.719 -3.019,-6.744 -6.736,-6.744 z m 0,10.514 c -2.08,0 -3.773,-1.693 -3.773,-3.774 0,-2.08 1.693,-3.773 3.773,-3.773 2.082,0 3.775,1.693 3.775,3.773 0,2.08 -1.693,3.774 -3.775,3.774 z"
           inkscape:connector-curvature="0"
           style="fill:#ffa500" />
      </g>
      <g
         id="g711"
         style="fill:#ffa500" />
      <g
         id="g713"
         style="fill:#ffa500" />
      <g
         id="g715"
         style="fill:#ffa500" />
      <g
         id="g717"
         style="fill:#ffa500" />
      <g
         id="g719"
         style="fill:#ffa500" />
      <g
         id="g721"
         style="fill:#ffa500" />
      <g
         id="g723"
         style="fill:#ffa500" />
      <g
         id="g725"
         style="fill:#ffa500" />
      <g
         id="g727"
         style="fill:#ffa500" />
      <g
         id="g729"
         style="fill:#ffa500" />
      <g
         id="g731"
         style="fill:#ffa500" />
      <g
         id="g733"
         style="fill:#ffa500" />
      <g
         id="g735"
         style="fill:#ffa500" />
      <g
         id="g737"
         style="fill:#ffa500" />
      <g
         id="g739"
         style="fill:#ffa500" />
    </g>
  </g>
</svg>
